<?xml version="1.0" encoding="UTF-8" standalone="no"?><!DOCTYPE svg PUBLIC "-//W3C//DTD SVG 1.1//EN" "http://www.w3.org/Graphics/SVG/1.1/DTD/svg11.dtd"><!-- Generated by graphviz version 2.40.1 (20161225.0304)
 --><!-- Title: G Pages: 1 --><svg xmlns="http://www.w3.org/2000/svg" xmlns:xlink="http://www.w3.org/1999/xlink" width="506pt" height="268pt" viewBox="0.00 0.00 506.02 268.00">
<g id="graph0" class="graph" transform="scale(1 1) rotate(0) translate(4 264)">
<title>G</title>
<polygon fill="#ffffff" stroke="transparent" points="-4,4 -4,-264 502.0162,-264 502.0162,4 -4,4"/>
<g id="clust2" class="cluster">
<title>cluster_b21a4774</title>
<polygon fill="none" stroke="#000000" stroke-dasharray="1,5" points="85.4856,-121 85.4856,-252 490.0162,-252 490.0162,-121 85.4856,-121"/>
<text text-anchor="middle" x="287.7509" y="-235.4" font-family="Times,serif" font-size="14.00" fill="#000000">File: homepage</text>
</g>
<!-- Legend -->
<g id="node1" class="node">
<title>Legend</title>
<polygon fill="none" stroke="#000000" points="1.5,-93 1.5,-111 270.5,-111 270.5,-93 1.5,-93"/>
<text text-anchor="start" x="82.1546" y="-97.4" font-family="Times,serif" font-size="14.00" fill="#000000">Code2flow Legend</text>
<polygon fill="none" stroke="#000000" points="1.5,-1 1.5,-93 270.5,-93 270.5,-1 1.5,-1"/>
<polygon fill="none" stroke="#000000" points="3.5,-69 3.5,-91 218.5,-91 218.5,-69 3.5,-69"/>
<text text-anchor="start" x="63.7633" y="-75.4" font-family="Times,serif" font-size="14.00" fill="#000000">Regular function</text>
<polygon fill="#cccccc" stroke="transparent" points="218.5,-69 218.5,-91 268.5,-91 268.5,-69 218.5,-69"/>
<polygon fill="none" stroke="#000000" points="218.5,-69 218.5,-91 268.5,-91 268.5,-69 218.5,-69"/>
<polygon fill="none" stroke="#000000" points="3.5,-47 3.5,-69 218.5,-69 218.5,-47 3.5,-47"/>
<text text-anchor="start" x="14.5736" y="-53.4" font-family="Times,serif" font-size="14.00" fill="#000000">Trunk function (nothing calls this)</text>
<polygon fill="#966f33" stroke="transparent" points="218.5,-47 218.5,-69 268.5,-69 268.5,-47 218.5,-47"/>
<polygon fill="none" stroke="#000000" points="218.5,-47 218.5,-69 268.5,-69 268.5,-47 218.5,-47"/>
<polygon fill="none" stroke="#000000" points="3.5,-25 3.5,-47 218.5,-47 218.5,-25 3.5,-25"/>
<text text-anchor="start" x="6.2268" y="-31.4" font-family="Times,serif" font-size="14.00" fill="#000000">Leaf function (this calls nothing else)</text>
<polygon fill="#6db33f" stroke="transparent" points="218.5,-25 218.5,-47 268.5,-47 268.5,-25 218.5,-25"/>
<polygon fill="none" stroke="#000000" points="218.5,-25 218.5,-47 268.5,-47 268.5,-25 218.5,-25"/>
<polygon fill="none" stroke="#000000" points="3.5,-3 3.5,-25 218.5,-25 218.5,-3 3.5,-3"/>
<text text-anchor="start" x="74.2556" y="-9.4" font-family="Times,serif" font-size="14.00" fill="#000000">Function call</text>
<polygon fill="none" stroke="#000000" points="218.5,-3 218.5,-25 268.5,-25 268.5,-3 218.5,-3"/>
<text text-anchor="start" x="238.25" y="-9.4" font-family="Times,serif" font-size="14.00" fill="#000000">→</text>
<polygon fill="none" stroke="#000000" points="2.5,-2 2.5,-92 269.5,-92 269.5,-2 2.5,-2"/>
<polygon fill="none" stroke="#000000" points="0,0 0,-112 271,-112 271,0 0,0"/>
</g>
<!-- node_b8201521 -->
<g id="node2" class="node">
<title>node_b8201521</title>
<path fill="#966f33" stroke="#000000" d="M165.5288,-192C165.5288,-192 105.4712,-192 105.4712,-192 99.4712,-192 93.4712,-186 93.4712,-180 93.4712,-180 93.4712,-168 93.4712,-168 93.4712,-162 99.4712,-156 105.4712,-156 105.4712,-156 165.5288,-156 165.5288,-156 171.5288,-156 177.5288,-162 177.5288,-168 177.5288,-168 177.5288,-180 177.5288,-180 177.5288,-186 171.5288,-192 165.5288,-192"/>
<text text-anchor="middle" x="135.5" y="-169.8" font-family="Times,serif" font-size="14.00" fill="#000000">0: (global)()</text>
</g>
<!-- node_1a79d24a -->
<g id="node3" class="node">
<title>node_1a79d24a</title>
<path fill="#6db33f" stroke="#000000" d="M470.0243,-165C470.0243,-165 318.9919,-165 318.9919,-165 312.9919,-165 306.9919,-159 306.9919,-153 306.9919,-153 306.9919,-141 306.9919,-141 306.9919,-135 312.9919,-129 318.9919,-129 318.9919,-129 470.0243,-129 470.0243,-129 476.0243,-129 482.0243,-135 482.0243,-141 482.0243,-141 482.0243,-153 482.0243,-153 482.0243,-159 476.0243,-165 470.0243,-165"/>
<text text-anchor="middle" x="394.5081" y="-142.8" font-family="Times,serif" font-size="14.00" fill="#000000">127: drawMiniMapCluster()</text>
</g>
<!-- node_b8201521&#45;&gt;node_1a79d24a -->
<g id="edge1" class="edge">
<title>node_b8201521-&gt;node_1a79d24a</title>
<path fill="none" stroke="#e69f00" stroke-width="2" d="M177.6906,-160.5C177.6906,-160.5 296.963,-160.5 296.963,-160.5"/>
<polygon fill="#e69f00" stroke="#e69f00" stroke-width="2" points="296.963,-164.0001 306.963,-160.5 296.9629,-157.0001 296.963,-164.0001"/>
</g>
<!-- node_303211fe -->
<g id="node4" class="node">
<title>node_303211fe</title>
<path fill="#6db33f" stroke="#000000" d="M442.6014,-219C442.6014,-219 346.4148,-219 346.4148,-219 340.4148,-219 334.4148,-213 334.4148,-207 334.4148,-207 334.4148,-195 334.4148,-195 334.4148,-189 340.4148,-183 346.4148,-183 346.4148,-183 442.6014,-183 442.6014,-183 448.6014,-183 454.6014,-189 454.6014,-195 454.6014,-195 454.6014,-207 454.6014,-207 454.6014,-213 448.6014,-219 442.6014,-219"/>
<text text-anchor="middle" x="394.5081" y="-196.8" font-family="Times,serif" font-size="14.00" fill="#000000">7: setupMinimap()</text>
</g>
<!-- node_b8201521&#45;&gt;node_303211fe -->
<g id="edge2" class="edge">
<title>node_b8201521-&gt;node_303211fe</title>
<path fill="none" stroke="#e69f00" stroke-width="2" d="M177.6906,-187.5C177.6906,-187.5 323.9559,-187.5 323.9559,-187.5"/>
<polygon fill="#e69f00" stroke="#e69f00" stroke-width="2" points="323.956,-191.0001 333.9559,-187.5 323.9559,-184.0001 323.956,-191.0001"/>
</g>
</g>
</svg>