<svg id="Layer_1" data-name="Layer 1" xmlns="http://www.w3.org/2000/svg" viewBox="0 0 258 238"><defs><style>.cls-1{fill:#fff;}.cls-2{fill:#68c170;}</style></defs><circle class="cls-1" cx="72" cy="15" r="15"/><circle class="cls-1" cx="129" cy="15" r="15"/><circle class="cls-1" cx="15" cy="15" r="15"/><circle class="cls-2" cx="186" cy="15" r="15"/><circle class="cls-2" cx="243" cy="15" r="15"/><circle class="cls-1" cx="72" cy="67" r="15"/><circle class="cls-1" cx="129" cy="67" r="15"/><circle class="cls-1" cx="15" cy="67" r="15"/><circle class="cls-2" cx="186" cy="67" r="15"/><circle class="cls-2" cx="243" cy="67" r="15"/><circle class="cls-1" cx="72" cy="119" r="15"/><circle class="cls-1" cx="129" cy="119" r="15"/><circle class="cls-1" cx="15" cy="119" r="15"/><circle class="cls-2" cx="186" cy="119" r="15"/><circle class="cls-2" cx="243" cy="119" r="15"/><circle class="cls-1" cx="72" cy="171" r="15"/><circle class="cls-1" cx="129" cy="171" r="15"/><circle class="cls-1" cx="15" cy="171" r="15"/><circle class="cls-2" cx="186" cy="171" r="15"/><circle class="cls-2" cx="243" cy="171" r="15"/><circle class="cls-1" cx="72" cy="223" r="15"/><circle class="cls-1" cx="129" cy="223" r="15"/><circle class="cls-1" cx="15" cy="223" r="15"/><circle class="cls-2" cx="186" cy="223" r="15"/><circle class="cls-2" cx="243" cy="223" r="15"/></svg>